HIERARCHY
ROOT joint_Root
{
	OFFSET 0.0 0.0 0.0
	CHANNELS 6 Xposition Yposition Zposition Zrotation Xrotation Yrotation 
	JOINT Hips
	{
		OFFSET -0.726466 93.3139 -2.00062
		CHANNELS 6 Xposition Yposition Zposition Zrotation Xrotation Yrotation 
		JOINT Spine
		{
			OFFSET 15.7357 0.0 0.0
			CHANNELS 6 Xposition Yposition Zposition Zrotation Xrotation Yrotation 
			JOINT Chest
			{
				OFFSET 8.98455 -0.406207 0.0
				CHANNELS 6 Xposition Yposition Zposition Zrotation Xrotation Yrotation 
				JOINT Neck
				{
					OFFSET 16.3773 0.0 0.0
					CHANNELS 6 Xposition Yposition Zposition Zrotation Xrotation Yrotation 
					JOINT Head
					{
						OFFSET 6.45672 0.0 0.0
						CHANNELS 6 Xposition Yposition Zposition Zrotation Xrotation Yrotation 
						End Site
						{
							OFFSET 0.0 0.0 0.0
						}
					}
				}
				JOINT Shoulder_L
				{
					OFFSET 12.9942 -0.242716 4.98039
					CHANNELS 6 Xposition Yposition Zposition Zrotation Xrotation Yrotation 
					JOINT UpperArm_L
					{
						OFFSET 5.34809 0.0 0.0
						CHANNELS 6 Xposition Yposition Zposition Zrotation Xrotation Yrotation 
						JOINT LowerArm_L
						{
							OFFSET 24.3286 1.87007e-05 0.0
							CHANNELS 6 Xposition Yposition Zposition Zrotation Xrotation Yrotation 
							JOINT Hand_L
							{
								OFFSET 22.2916 0.0 0.0
								CHANNELS 6 Xposition Yposition Zposition Zrotation Xrotation Yrotation 
								End Site
								{
									OFFSET 0.0 0.0 0.0
								}
							}
						}
					}
				}
				JOINT Shoulder_R
				{
					OFFSET 12.9945 -0.242716 -4.98039
					CHANNELS 6 Xposition Yposition Zposition Zrotation Xrotation Yrotation 
					JOINT UpperArm_R
					{
						OFFSET -5.34813 0.0 0.0
						CHANNELS 6 Xposition Yposition Zposition Zrotation Xrotation Yrotation 
						JOINT LowerArm_R
						{
							OFFSET -24.3289 0.000322201 0.0
							CHANNELS 6 Xposition Yposition Zposition Zrotation Xrotation Yrotation 
							JOINT Hand_R
							{
								OFFSET -22.2915 -0.000108084 0.0
								CHANNELS 6 Xposition Yposition Zposition Zrotation Xrotation Yrotation 
								End Site
								{
									OFFSET 0.0 0.0 0.0
								}
							}
						}
					}
				}
			}
		}
		JOINT UpperLeg_L
		{
			OFFSET -2.19248 -6.46944 0.0
			CHANNELS 6 Xposition Yposition Zposition Zrotation Xrotation Yrotation 
			JOINT LowerLeg_L
			{
				OFFSET 39.0811 0.0 -1.23785e-05
				CHANNELS 6 Xposition Yposition Zposition Zrotation Xrotation Yrotation 
				JOINT Foot_L
				{
					OFFSET 40.9854 0.0 -1.26872e-05
					CHANNELS 6 Xposition Yposition Zposition Zrotation Xrotation Yrotation 
					JOINT Toes_L
					{
						OFFSET 11.7543 0.0 0.0
						CHANNELS 6 Xposition Yposition Zposition Zrotation Xrotation Yrotation 
						End Site
						{
							OFFSET 0.0 0.0 0.0
						}
					}
				}
			}
		}
		JOINT UpperLeg_R
		{
			OFFSET -2.19251 6.46944 0.0
			CHANNELS 6 Xposition Yposition Zposition Zrotation Xrotation Yrotation 
			JOINT LowerLeg_R
			{
				OFFSET -39.0811 -0.00228153 -0.0401928
				CHANNELS 6 Xposition Yposition Zposition Zrotation Xrotation Yrotation 
				JOINT Foot_R
				{
					OFFSET -40.9854 0.0 0.0
					CHANNELS 6 Xposition Yposition Zposition Zrotation Xrotation Yrotation 
					JOINT Toes_R
					{
						OFFSET -11.7543 0.0 0.0
						CHANNELS 6 Xposition Yposition Zposition Zrotation Xrotation Yrotation 
						End Site
						{
							OFFSET 0.0 0.0 0.0
						}
					}
				}
			}
		}
	}
}
MOTION
Frames:	9
Frame Time:	0.0333333
0.000000 0.000000 0.000000 0.000000 0.000000 -0.000000 -0.664358 92.603700 -2.625060 88.116600 0.104703 3.486650 15.735700 0.000005 -0.000001 85.389200 86.546600 -84.986900 8.984550 -0.406207 -0.000000 -0.879467 -0.585450 0.799707 16.377300 -0.000001 -0.000001 2.625990 -2.289240 0.519531 6.456720 -0.000001 -0.000000 1.049840 -1.491360 0.779745 12.994200 -0.242716 4.980390 -86.951200 -9.991360 -72.934300 5.348090 -0.000007 -0.000001 -88.003500 -27.920700 -93.774800 24.328600 0.000019 0.000005 12.559400 -0.832009 -93.729300 22.291600 -0.000001 0.000005 19.936900 5.547930 -8.608890 12.994500 -0.242716 -4.980390 90.701400 -2.157210 -71.984300 -5.348130 -0.000001 -0.000004 -77.590400 -25.300500 -100.646000 -24.328900 0.000322 -0.000009 19.301900 1.239900 -86.465500 -22.291500 -0.000108 -0.000004 21.081600 5.318090 -0.441022 -2.192480 -6.469440 -0.000000 -175.800000 -6.341350 -4.191070 39.081100 -0.000007 -0.000012 -0.086035 0.215875 21.729300 40.985400 -0.000006 -0.000013 -0.033557 4.118320 -64.325600 11.754300 -0.000000 0.000003 -0.000027 -0.000328 -16.590400 -2.192510 6.469440 -0.000001 179.991000 13.984600 178.196000 -39.081100 -0.002282 -0.040193 -0.023338 0.079562 18.526100 -40.985400 0.000008 0.000006 3.403990 7.397430 -63.796900 -11.754300 -0.000006 -0.000006 -0.007776 -0.086197 -20.082900
0.000000 0.000000 0.000000 0.000000 0.000000 -0.000000 -0.638689 92.605300 -2.629360 88.129700 0.063305 3.431730 15.735700 0.000005 -0.000001 85.550100 86.556800 -85.157600 8.984550 -0.406207 -0.000000 -0.898309 -0.563851 0.780247 16.377300 -0.000001 -0.000001 2.634070 -2.289900 0.522429 6.456720 -0.000001 -0.000000 1.061100 -1.517440 0.752690 12.994200 -0.242716 4.980390 -86.942300 -9.999240 -72.899800 5.348090 -0.000007 -0.000001 -88.089400 -27.987100 -93.908600 24.328600 0.000019 0.000005 12.707800 -0.831482 -93.682100 22.291600 -0.000001 0.000005 20.089500 5.545950 -8.516630 12.994500 -0.242716 -4.980390 90.702400 -2.154820 -71.941000 -5.348130 -0.000001 -0.000004 -77.496700 -25.439000 -100.689000 -24.328900 0.000322 -0.000009 19.427000 1.246950 -86.470200 -22.291500 -0.000108 -0.000004 20.815300 5.315600 -0.369360 -2.192480 -6.469440 -0.000000 -175.843000 -6.215000 -4.233850 39.081100 -0.000007 -0.000012 -0.088420 0.222092 21.708600 40.985400 -0.000006 -0.000013 -0.051561 3.973700 -64.318500 11.754300 -0.000000 0.000003 -0.000035 -0.000410 -16.593500 -2.192510 6.469440 -0.000001 179.965000 13.957700 178.133000 -39.081100 -0.002282 -0.040193 -0.025278 0.085351 18.526500 -40.985400 0.000008 0.000006 3.357740 7.416530 -63.781000 -11.754300 -0.000006 -0.000006 -0.007828 -0.086624 -20.100300
0.000000 0.000000 0.000000 0.000000 0.000000 -0.000000 -0.602891 92.610200 -2.637190 88.112400 0.030166 3.415790 15.735700 0.000005 -0.000001 85.577100 86.554500 -85.182900 8.984550 -0.406207 -0.000000 -0.893530 -0.561089 0.783625 16.377300 -0.000001 -0.000001 2.648530 -2.284630 0.504325 6.456720 -0.000001 -0.000000 1.080640 -1.536400 0.772304 12.994200 -0.242716 4.980390 -86.940300 -9.976540 -72.852800 5.348090 -0.000007 -0.000001 -88.220700 -28.013300 -94.063600 24.328600 0.000019 0.000005 12.572900 -0.805108 -93.605100 22.291600 -0.000001 0.000005 19.955500 5.546320 -8.533530 12.994500 -0.242716 -4.980390 90.699600 -2.143170 -71.917200 -5.348130 -0.000001 -0.000004 -77.319200 -25.585300 -100.707000 -24.328900 0.000322 -0.000009 19.599700 1.269530 -86.440600 -22.291500 -0.000108 -0.000004 20.624400 5.309890 -0.206679 -2.192480 -6.469440 -0.000000 -175.856000 -6.278210 -4.246390 39.081100 -0.000007 -0.000012 -0.085629 0.215195 21.698400 40.985400 -0.000006 -0.000013 -0.023728 3.961120 -64.311200 11.754300 -0.000000 0.000003 -0.000030 -0.000358 -16.591500 -2.192510 6.469440 -0.000001 179.971000 13.950200 178.134000 -39.081100 -0.002282 -0.040193 -0.023601 0.080588 18.474900 -40.985400 0.000008 0.000006 3.351520 7.456210 -63.746100 -11.754300 -0.000006 -0.000006 -0.007586 -0.084616 -20.018300
0.000000 0.000000 0.000000 0.000000 0.000000 -0.000000 -0.574587 92.613200 -2.639760 88.124300 -0.011046 3.370750 15.735700 0.000005 -0.000001 85.609200 86.558000 -85.222000 8.984550 -0.406207 -0.000000 -0.900295 -0.556192 0.769616 16.377300 -0.000001 -0.000001 2.657630 -2.304100 0.518645 6.456720 -0.000001 -0.000000 1.084350 -1.546310 0.708064 12.994200 -0.242716 4.980390 -86.935200 -9.953220 -72.788700 5.348090 -0.000007 -0.000001 -88.298800 -28.011300 -94.151000 24.328600 0.000019 0.000005 12.433300 -0.770691 -93.491300 22.291600 -0.000001 0.000005 20.003600 5.548090 -8.616460 12.994500 -0.242716 -4.980390 90.698900 -2.137050 -71.885100 -5.348130 -0.000001 -0.000004 -77.193700 -25.700600 -100.749000 -24.328900 0.000322 -0.000009 19.201500 1.261940 -86.382600 -22.291500 -0.000108 -0.000004 20.275300 5.311080 -0.240631 -2.192480 -6.469440 -0.000000 -175.886000 -6.380420 -4.280540 39.081100 -0.000007 -0.000012 -0.086011 0.216415 21.674800 40.985400 -0.000006 -0.000013 0.008359 4.011640 -64.297400 11.754300 -0.000000 0.000003 -0.000026 -0.000322 -16.590200 -2.192510 6.469440 -0.000001 179.945000 13.930500 178.084000 -39.081100 -0.002282 -0.040193 -0.024214 0.082466 18.465800 -40.985400 0.000008 0.000006 3.320990 7.469170 -63.726300 -11.754300 -0.000006 -0.000006 -0.007799 -0.086385 -20.090600
0.000000 0.000000 0.000000 0.000000 0.000000 -0.000000 -0.553042 92.621100 -2.653480 88.106200 -0.023951 3.363800 15.735700 0.000005 -0.000001 85.652800 86.538900 -85.269700 8.984550 -0.406207 -0.000000 -0.861779 -0.553437 0.761745 16.377300 -0.000001 -0.000001 2.643840 -2.302770 0.510829 6.456720 -0.000001 -0.000000 1.049560 -1.561640 0.724405 12.994200 -0.242716 4.980390 -86.925400 -9.951520 -72.733900 5.348090 -0.000007 -0.000001 -88.390800 -27.929600 -94.217600 24.328600 0.000019 0.000005 12.496600 -0.757684 -93.414600 22.291600 -0.000001 0.000005 19.882300 5.545050 -8.474690 12.994500 -0.242716 -4.980390 90.695900 -2.123280 -71.848900 -5.348130 -0.000001 -0.000004 -76.940900 -25.850700 -100.753000 -24.328900 0.000322 -0.000009 19.696000 1.334850 -86.277700 -22.291500 -0.000108 -0.000004 20.328800 5.304870 -0.064649 -2.192480 -6.469440 -0.000000 -175.879000 -6.388100 -4.274260 39.081100 -0.000007 -0.000012 -0.085484 0.215505 21.636700 40.985400 -0.000006 -0.000013 0.018248 4.016890 -64.273100 11.754300 -0.000000 0.000003 -0.000028 -0.000339 -16.590800 -2.192510 6.469440 -0.000001 179.963000 13.934500 178.093000 -39.081100 -0.002282 -0.040193 -0.022099 0.076384 18.408800 -40.985400 0.000008 0.000006 3.399720 7.498210 -63.699500 -11.754300 -0.000006 -0.000006 -0.007788 -0.086296 -20.086900
0.000000 0.000000 0.000000 0.000000 0.000000 -0.000000 -0.541300 92.623700 -2.671980 88.102100 -0.019700 3.333650 15.735700 0.000005 -0.000001 85.593800 86.524100 -85.222900 8.984550 -0.406207 -0.000000 -0.832764 -0.561798 0.737341 16.377300 -0.000001 -0.000001 2.605260 -2.332530 0.533786 6.456720 -0.000001 -0.000000 1.009470 -1.595680 0.745783 12.994200 -0.242716 4.980390 -86.922800 -9.908460 -72.650400 5.348090 -0.000007 -0.000001 -88.399900 -27.760700 -94.325100 24.328600 0.000019 0.000005 12.397800 -0.708857 -93.221300 22.291600 -0.000001 0.000005 19.800100 5.546720 -8.552440 12.994500 -0.242716 -4.980390 90.689700 -2.099020 -71.804800 -5.348130 -0.000001 -0.000004 -76.703000 -26.008900 -100.686000 -24.328900 0.000322 -0.000009 19.704500 1.342970 -86.256800 -22.291500 -0.000108 -0.000004 20.162800 5.304310 -0.048828 -2.192480 -6.469440 -0.000000 -175.891000 -6.312430 -4.318350 39.081100 -0.000007 -0.000012 -0.085671 0.216040 21.630900 40.985400 -0.000006 -0.000013 0.017033 3.983100 -64.256500 11.754300 -0.000000 0.000003 -0.000032 -0.000378 -16.592300 -2.192510 6.469440 -0.000001 179.974000 13.964800 178.046000 -39.081100 -0.002282 -0.040193 -0.020989 0.073058 18.407400 -40.985400 0.000008 0.000006 3.440260 7.499440 -63.688200 -11.754300 -0.000006 -0.000006 -0.007849 -0.086794 -20.107300
0.000000 0.000000 0.000000 0.000000 0.000000 -0.000000 -0.539556 92.626100 -2.693480 88.100600 0.009740 3.269920 15.735700 0.000005 -0.000001 85.521800 86.523200 -85.166100 8.984550 -0.406207 -0.000000 -0.831820 -0.569499 0.706763 16.377300 -0.000001 -0.000001 2.560090 -2.374900 0.521090 6.456720 -0.000001 -0.000000 1.000940 -1.649160 0.810646 12.994200 -0.242716 4.980390 -86.915200 -9.895740 -72.589000 5.348090 -0.000007 -0.000001 -88.307200 -27.594900 -94.347400 24.328600 0.000019 0.000005 12.471900 -0.681471 -93.078100 22.291600 -0.000001 0.000005 19.839100 5.545550 -8.497750 12.994500 -0.242716 -4.980390 90.684000 -2.076080 -71.758700 -5.348130 -0.000001 -0.000004 -76.411900 -26.190200 -100.484000 -24.328900 0.000322 -0.000009 19.598400 1.313820 -86.316400 -22.291500 -0.000108 -0.000004 20.038600 5.303780 -0.034033 -2.192480 -6.469440 -0.000000 -175.919000 -6.219730 -4.400680 39.081100 -0.000007 -0.000012 -0.083743 0.211207 21.628300 40.985400 -0.000006 -0.000013 0.006350 3.880080 -64.238700 11.754300 -0.000000 0.000003 -0.000033 -0.000395 -16.593000 -2.192510 6.469440 -0.000001 179.986000 13.975600 177.978000 -39.081100 -0.002282 -0.040193 -0.022585 0.077944 18.387000 -40.985400 0.000008 0.000006 3.398650 7.492850 -63.658800 -11.754300 -0.000006 -0.000006 -0.007860 -0.086890 -20.111200
0.000000 0.000000 0.000000 0.000000 0.000000 -0.000000 -0.539095 92.633500 -2.723180 88.080200 0.071695 3.219630 15.735700 0.000005 -0.000001 85.041100 86.500700 -84.698100 8.984550 -0.406207 -0.000000 -0.791740 -0.630445 0.681478 16.377300 -0.000001 -0.000001 2.506290 -2.415460 0.528388 6.456720 -0.000001 -0.000000 0.938813 -1.651360 0.819796 12.994200 -0.242716 4.980390 -86.906800 -9.869840 -72.501800 5.348090 -0.000007 -0.000001 -88.170400 -27.501900 -94.255700 24.328600 0.000019 0.000005 12.452700 -0.683048 -93.090100 22.291600 -0.000001 0.000005 19.760000 5.543870 -8.420150 12.994500 -0.242716 -4.980390 90.661300 -2.004060 -71.732500 -5.348130 -0.000001 -0.000004 -76.071500 -26.293300 -100.176000 -24.328900 0.000322 -0.000009 19.646800 1.262490 -86.469400 -22.291500 -0.000108 -0.000004 19.994200 5.302700 -0.003595 -2.192480 -6.469440 -0.000000 -175.911000 -6.141940 -4.476790 39.081100 -0.000007 -0.000012 -0.083742 0.211420 21.608200 40.985400 -0.000006 -0.000013 0.005147 3.882930 -64.198300 11.754300 -0.000000 0.000003 -0.000023 -0.000285 -16.588700 -2.192510 6.469440 -0.000001 -179.973000 14.048200 177.930000 -39.081100 -0.002282 -0.040193 -0.020351 0.071425 18.339100 -40.985400 0.000008 0.000006 3.484790 7.503940 -63.630300 -11.754300 -0.000006 -0.000006 -0.007810 -0.086477 -20.094300
0.000000 0.000000 0.000000 0.000000 0.000000 -0.000000 -0.543975 92.646500 -2.755360 88.107800 0.103974 3.158020 15.735700 0.000005 -0.000001 84.854600 86.482500 -84.522100 8.984550 -0.406207 -0.000000 -0.757353 -0.655514 0.660235 16.377300 -0.000001 -0.000001 2.406140 -2.429080 0.471613 6.456720 -0.000001 -0.000000 0.930043 -1.690940 0.746671 12.994200 -0.242716 4.980390 -86.917000 -9.808680 -72.454900 5.348090 -0.000007 -0.000001 -87.844000 -27.522300 -93.769000 24.328600 0.000019 0.000005 12.139800 -0.714398 -93.317400 22.291600 -0.000001 0.000005 19.847600 5.546620 -8.547500 12.994500 -0.242716 -4.980390 90.637300 -1.921520 -71.647000 -5.348130 -0.000001 -0.000004 -75.652200 -26.269500 -99.637100 -24.328900 0.000322 -0.000009 19.609400 1.136190 -86.815300 -22.291500 -0.000108 -0.000004 19.942400 5.302620 -0.001264 -2.192480 -6.469440 -0.000000 -175.947000 -6.126880 -4.513780 39.081100 -0.000007 -0.000012 -0.083198 0.211189 21.502000 40.985400 -0.000006 -0.000013 -0.001160 3.878860 -64.118400 11.754300 -0.000000 0.000003 -0.000034 -0.000401 -16.593200 -2.192510 6.469440 -0.000001 -179.975000 14.094200 177.884000 -39.081100 -0.002282 -0.040193 -0.020172 0.071194 18.264600 -40.985400 0.000008 0.000006 3.474300 7.502740 -63.573000 -11.754300 -0.000006 -0.000006 -0.007864 -0.086921 -20.112500
